<?xml version="1.0" encoding="UTF-8" ?><svg xmlns="http://www.w3.org/2000/svg" viewBox="0 0 100 100"><defs><style>.cls-1{fill:#24b964;}.cls-2{fill:#3a4147;}</style></defs><g id="Tekst"><ellipse class="cls-1" cx="78.17" cy="14.39" rx="22.38" ry="7.81" transform="translate(8.2 52.1) rotate(-38.75)"/><path class="cls-2" d="M51.89,47.61c-1.41-.73-2.43-2.3-2.68-4.64-.56-5.3,3-12,7.84-14a5.47,5.47,0,0,1,3.67-.34C56.62,30.93,51.08,36.78,51.89,47.61Z"/><path class="cls-2" d="M52.52,67.8V5.42h6.75a1.89,1.89,0,0,0,1.89-1.89V0H37.9v3.5a1.9,1.9,0,0,0,1.9,1.89h6.94V67.8h-11L38.37,100H60.89l2.65-32.2Z"/></g></svg>