<?xml version="1.0" encoding="UTF-8" ?><svg xmlns="http://www.w3.org/2000/svg" viewBox="0 0 100 100"><defs><style>.cls-1,.cls-2{fill:none;stroke:#3a4147;stroke-miterlimit:10;}.cls-1{stroke-width:3.81px;}.cls-2{stroke-width:4.76px;}.cls-3{fill:#24b964;}.cls-4{fill:#3a4147;}</style></defs><g id="Leaves_kopie" data-name="Leaves kopie"><line class="cls-1" x1="49.76" y1="33.24" x2="57.43" y2="44.73"/><line class="cls-2" x1="48.43" y1="52.02" x2="27.32" y2="39.27"/><polyline class="cls-2" points="40.65 26.76 48.9 53.45 57.43 44.73 83.94 34.57"/><path class="cls-3" d="M90.39,25.25a3.68,3.68,0,0,0,.06-.58c0-4.39-6.11-8-13.72-8.07a20.75,20.75,0,0,0-8.58,1.65c-.39-3.26-5.1-5.86-10.88-5.91a17.44,17.44,0,0,0-5.48.79A12,12,0,0,0,43.36,10c-5.54,0-10.06,2.87-10.09,6.51a4.6,4.6,0,0,0,.52,2.14c-2.69,1.42-4.32,3.24-4.34,5.24h0a10.42,10.42,0,0,0-6.51-2.16c-4.58,0-8.33,2.42-8.65,5.56a14.54,14.54,0,0,0-3.15-.36C5.3,26.88.53,30.22.49,34.38S5.17,42,11,42h.38c1.64,2.46,6.12,4.25,11.41,4.3s9.82-1.68,11.49-4.12a12.81,12.81,0,0,0,1.54.12c4.76,0,8.65-2.63,8.68-6a4.68,4.68,0,0,0-1-2.88,14.19,14.19,0,0,0,4.44.73A13.18,13.18,0,0,0,55,32.37a12.84,12.84,0,0,0,1.57.28,5.08,5.08,0,0,0-.18,1.29c0,4.17,4.67,7.58,10.52,7.64A11.92,11.92,0,0,0,76,38a20,20,0,0,0,9.59,2.33c7.57.07,13.74-3.37,13.78-7.68C99.38,29.28,95.64,26.38,90.39,25.25ZM31.51,27.87v0c0-.05,0-.1,0-.15l.23.21Z"/><line class="cls-2" x1="49.76" y1="63.53" x2="54.07" y2="61"/><polygon class="cls-4" points="49.28 100 51.75 52.19 45.1 51.85 42.61 100 49.28 100"/></g></svg>